#N canvas 692 163 578 543 10;
#X obj 147 46 dumpOSC 50002;
#X floatatom 208 125 5 0 0 0 - - -;
#N canvas 0 22 450 278 (subpatch) 0;
#X array wave 1 float 2;
#X coords 0 1 1 -1 200 140 1 0 0;
#X restore 362 379 graph;
#X obj 148 351 ogScope;
#X msg 235 202 \; wave resize \$1;
#X obj 173 200 counter;
#X obj 143 236 tabwrite wave;
#X obj 143 125 t f b;
#X obj 46 431 dac~;
#X obj 45 253 tabread4~ wave;
#X obj 42 157 phasor~;
#X floatatom 43 125 5 0 0 0 - - -;
#X obj 42 226 *~;
#X obj 262 123 bng 15 250 50 0 empty empty empty 17 7 0 10 -262144
-1 -1;
#X msg 261 142 0;
#X obj 146 81 OSCroute /ang /size /set /cent;
#X obj 308 109 unpack;
#X floatatom 308 134 5 0 0 0 - - -;
#X floatatom 346 134 5 0 0 0 - - -;
#X obj 349 200 + 20;
#X obj 347 154 expr -$f1+1;
#X obj 348 175 * 20;
#X floatatom 153 287 5 0 1 0 - - -;
#X obj 153 308 expr -$f1+1;
#X obj 47 350 *~ 0.5;
#X obj 93 349 *~ 0.5;
#X obj 45 392 *~ 0.1;
#X obj 90 392 *~ 0.1;
#X obj 11 209 vsl 15 128 0 1 0 0 empty empty empty 0 -9 0 10 -262144
-1 -1 5800 1;
#X floatatom 11 346 5 0 0 0 - - -;
#X obj 199 158 + 1;
#X connect 0 0 15 0;
#X connect 1 0 4 0;
#X connect 1 0 30 0;
#X connect 5 0 6 1;
#X connect 7 0 6 0;
#X connect 7 1 5 0;
#X connect 9 0 24 0;
#X connect 9 0 25 0;
#X connect 10 0 12 0;
#X connect 11 0 10 0;
#X connect 12 0 9 0;
#X connect 13 0 14 0;
#X connect 14 0 12 1;
#X connect 14 0 4 0;
#X connect 15 0 7 0;
#X connect 15 1 1 0;
#X connect 15 2 13 0;
#X connect 15 3 16 0;
#X connect 16 0 17 0;
#X connect 16 1 18 0;
#X connect 17 0 22 0;
#X connect 18 0 20 0;
#X connect 20 0 21 0;
#X connect 21 0 19 0;
#X connect 22 0 23 0;
#X connect 22 0 25 1;
#X connect 23 0 24 1;
#X connect 24 0 26 0;
#X connect 25 0 27 0;
#X connect 26 0 8 0;
#X connect 26 0 3 0;
#X connect 27 0 8 1;
#X connect 27 0 3 0;
#X connect 28 0 29 0;
#X connect 29 0 26 1;
#X connect 29 0 27 1;
#X connect 30 0 5 4;
#X connect 30 0 12 1;
