#N canvas 200 110 604 425 10;
#X obj 298 -2 inlet;
#X obj 110 108 wave_seq;
#N canvas 467 180 450 300 scaling 0;
#X floatatom 48 33 5 0 0 0 - - -;
#X floatatom 195 33 5 0 0 0 - - -;
#X floatatom 233 33 5 0 0 0 - - -;
#X obj 58 89 expr (($f1+1)/2) * ($f3-$f2) + $f2;
#X obj 59 3 inlet;
#X obj 224 7 inlet;
#X obj 264 6 inlet;
#X obj 90 66 outlet;
#X obj 295 31 loadbang;
#X msg 294 57 24;
#X msg 323 57 36;
#X floatatom 85 34 5 0 0 0 - - -;
#X text 146 31 min/max;
#X connect 0 0 3 0;
#X connect 1 0 3 1;
#X connect 2 0 3 2;
#X connect 3 0 11 0;
#X connect 4 0 0 0;
#X connect 5 0 1 0;
#X connect 6 0 2 0;
#X connect 8 0 9 0;
#X connect 8 0 10 0;
#X connect 9 0 1 0;
#X connect 10 0 2 0;
#X connect 11 0 7 0;
#X coords 0 -1 1 1 240 30 2 40 25;
#X restore 110 235 pd scaling;
#X obj 298 33 route \$1;
#X obj 110 379 outlet;
#X text 157 382 to sendOSC;
#X msg 110 337 send /around_num \$1 \$2;
#X text 347 -3 get bits;
#X obj 110 305 prepend \$1;
#X obj 428 146 loadbang;
#X obj 427 173 int \$1;
#X text 352 243 ID;
#X floatatom 366 244 5 0 0 0 - - -;
#X connect 0 0 3 0;
#X connect 1 0 2 0;
#X connect 2 0 8 0;
#X connect 3 0 1 2;
#X connect 6 0 4 0;
#X connect 8 0 6 0;
#X connect 9 0 10 0;
#X connect 10 0 12 0;
#X coords 0 -1 1 1 300 180 2 100 100;
