#N canvas 495 149 559 476 10;
#X floatatom 290 118 7 0 0 0 freq - -;
#X floatatom 351 119 5 0 0 0 Q - -;
#X obj 38 382 outlet~;
#X obj 357 60 inlet;
#X obj 397 59 inlet;
#X obj 35 46 inlet~;
#X obj 84 245 *~ 0.5;
#X obj 134 245 *~ 0.5;
#X obj 126 120 hsl 128 15 0 1 0 0 empty empty empty -2 -8 0 10 -262144
-1 -1 12700 1;
#X obj 129 212 abs;
#X obj 129 189 - 1;
#X obj 105 120 tgl 15 0 empty empty empty 17 7 0 10 -262144 -1 -1 1
1;
#X obj 71 165 *~ 1;
#X obj 34 165 *~ 0;
#X obj 102 47 loadbang;
#X msg 103 69 1;
#X text 106 100 BANDPASS FILTER;
#X obj 197 289 vcf~;
#X obj 206 237 line~;
#X msg 204 207 \$1 20;
#X obj 55 142 == 0;
#X connect 0 0 19 0;
#X connect 1 0 17 2;
#X connect 3 0 0 0;
#X connect 4 0 1 0;
#X connect 5 0 13 0;
#X connect 5 0 12 0;
#X connect 6 0 2 0;
#X connect 7 0 17 0;
#X connect 8 0 7 1;
#X connect 8 0 10 0;
#X connect 9 0 6 1;
#X connect 10 0 9 0;
#X connect 11 0 12 1;
#X connect 11 0 20 0;
#X connect 12 0 6 0;
#X connect 12 0 7 0;
#X connect 13 0 2 0;
#X connect 14 0 15 0;
#X connect 15 0 11 0;
#X connect 15 0 8 0;
#X connect 17 0 2 0;
#X connect 18 0 17 1;
#X connect 19 0 18 0;
#X connect 20 0 13 1;
#X coords 0 -1 1 1 290 40 2 100 100;
