#N canvas 561 331 391 387 10;
#X obj 67 232 *~;
#X obj 120 65 bng 15 250 50 0 empty empty empty 17 7 0 10 -262144 -1
-1;
#X obj 118 195 vline~;
#X obj 167 130 del 10;
#X msg 169 155 0 1000;
#X obj 65 30 inlet~;
#X obj 67 340 outlet~;
#X obj 121 29 inlet;
#X msg 118 155 0.6 20;
#X obj 279 29 inlet;
#X obj 130 339 outlet~;
#X obj 66 302 *~;
#X obj 129 304 *~;
#X obj 280 228 line~;
#X floatatom 279 107 5 0 0 0 - - -;
#X text 301 80 pan;
#X obj 234 153 - 1;
#X obj 233 179 abs;
#X msg 279 200 \$1 20;
#X obj 234 228 line~;
#X msg 233 200 \$1 20;
#X connect 0 0 11 0;
#X connect 0 0 12 0;
#X connect 1 0 3 0;
#X connect 1 0 8 0;
#X connect 2 0 0 1;
#X connect 3 0 4 0;
#X connect 4 0 2 0;
#X connect 5 0 0 0;
#X connect 7 0 1 0;
#X connect 8 0 2 0;
#X connect 9 0 14 0;
#X connect 11 0 6 0;
#X connect 12 0 10 0;
#X connect 13 0 12 1;
#X connect 14 0 16 0;
#X connect 14 0 18 0;
#X connect 16 0 17 0;
#X connect 17 0 20 0;
#X connect 18 0 13 0;
#X connect 19 0 11 1;
#X connect 20 0 19 0;
