#N canvas 34 22 1280 752 10;
#X floatatom 306 -25 5 0 0 0 - - -;
#X obj 174 19 unpack;
#X floatatom 350 -24 5 0 0 0 - - -;
#X floatatom 109 191 5 0 0 0 - - -;
#X floatatom 109 216 5 0 0 0 - - -;
#X obj 73 -94 dumpOSC 50001;
#X obj 310 12 gate 2;
#X text 363 12 ID;
#X obj 309 37 s \$0-id_1;
#X obj 370 37 s \$0-id_2;
#X obj 100 -60 OSCroute /bit /set /pos /id /mode /del;
#X obj 190 -6 s \$0-pos_1;
#X obj 190 -31 prepend pos;
#X text 147 192 pos x;
#X text 145 213 pos y;
#X floatatom 110 138 5 0 0 0 - - -;
#X floatatom 110 163 5 0 0 0 - - -;
#X text 146 140 mode;
#X text 147 160 id;
#X obj 199 176 wave_seq;
#X obj 570 724 *~;
#N canvas 655 177 452 421 sub 0;
#X obj 245 117 bng 15 250 50 0 empty empty empty 17 7 0 10 -262144
-1 -1;
#X obj 245 132 bng 15 250 50 0 empty empty empty 17 7 0 10 -262144
-1 -1;
#X obj 245 147 bng 15 250 50 0 empty empty empty 17 7 0 10 -262144
-1 -1;
#X obj 245 162 bng 15 250 50 0 empty empty empty 17 7 0 10 -262144
-1 -1;
#X obj 245 177 bng 15 250 50 0 empty empty empty 17 7 0 10 -262144
-1 -1;
#X obj 245 192 bng 15 250 50 0 empty empty empty 17 7 0 10 -262144
-1 -1;
#X obj 245 207 bng 15 250 50 0 empty empty empty 17 7 0 10 -262144
-1 -1;
#X obj 245 222 bng 15 250 50 0 empty empty empty 17 7 0 10 -262144
-1 -1;
#X obj 142 74 sel 0 1 2 3 4 5 6 7;
#X obj 71 -52 inlet;
#X text 265 114 0;
#X text 265 130 1;
#X text 264 146 2;
#X text 264 161 3;
#X text 264 176 4;
#X text 265 190 5;
#X text 265 208 6;
#X text 265 221 7;
#X obj 73 15 change;
#X obj 72 -7 int;
#X obj 72 -30 expr ($f1+1)*4;
#X obj 79 213 outlet;
#X connect 8 0 0 0;
#X connect 8 1 1 0;
#X connect 8 2 2 0;
#X connect 8 3 3 0;
#X connect 8 4 4 0;
#X connect 8 5 5 0;
#X connect 8 6 6 0;
#X connect 8 7 7 0;
#X connect 9 0 20 0;
#X connect 18 0 8 0;
#X connect 18 0 21 0;
#X connect 19 0 18 0;
#X connect 20 0 19 0;
#X coords 0 -1 1 1 40 150 1 240 100;
#X restore 493 160 pd sub;
#X obj 628 117 r \$0-seq1;
#X obj 627 141 select 0 1 2 3 4 5 6 7;
#X obj 495 321 s \$0-seq1;
#X obj 626 172 waveunit;
#X obj 857 134 hsl 128 15 0 1000 0 0 empty empty empty -2 -8 0 10 -262144
-1 -1 0 1;
#X floatatom 986 133 5 0 0 0 - - -;
#X msg 950 74 set \$1;
#X text 130 109 OSC;
#X obj 109 110 bng 15 250 50 0 empty empty empty 17 7 0 10 -262144
-258113 -1;
#X obj 571 767 dac~;
#X obj 408 618 vsl 15 128 0 1 0 0 empty empty empty 0 -9 0 10 -99865
-257985 -1 0 1;
#X floatatom 801 -18 5 0 0 0 - - -;
#X obj 800 4 + 1;
#X obj 865 -45 r \$0-pos_1;
#X obj 802 -45 r \$0-id_1;
#X obj 800 31 gate 8;
#X obj 934 -44 r \$0-set_bits1;
#X obj 589 -49 r \$0-set_bits2;
#X obj 96 -29 s \$0-set_bits1;
#X obj 100 -6 s \$0-set_bits2;
#X obj 108 244 bng 15 250 50 0 empty empty empty 17 7 0 10 -262144
-1 -1;
#X text 129 243 delete;
#X obj 412 2 s \$0-del;
#X msg 412 -25 set;
#X obj 936 -21 r \$0-del;
#X obj 194 617 myScope;
#X text 449 760 Master fader;
#X floatatom 408 759 5 0 0 0 - - -;
#X obj 192 529 myChorus;
#X obj 192 477 myFlanger;
#X obj 213 323 vradio 15 1 0 5 empty empty empty 0 -8 0 10 -262144
-1 -1 0;
#N canvas 608 216 450 300 swichng 0;
#X obj 52 42 inlet;
#X obj 272 172 inlet~;
#X obj 52 112 t f b;
#X floatatom 51 66 5 0 0 0 - - -;
#X msg 122 148 0;
#X obj 50 251 outlet~;
#X obj 51 222 *~;
#X obj 51 175 route 0 1 2 3 4;
#X obj 104 251 outlet~;
#X obj 105 222 *~;
#X obj 159 250 outlet~;
#X obj 160 221 *~;
#X obj 213 250 outlet~;
#X obj 214 221 *~;
#X obj 268 249 outlet~;
#X obj 269 220 *~;
#X obj 51 150 pack 0 1;
#X connect 0 0 3 0;
#X connect 1 0 6 0;
#X connect 1 0 9 0;
#X connect 1 0 11 0;
#X connect 1 0 13 0;
#X connect 1 0 15 0;
#X connect 2 0 16 0;
#X connect 2 1 4 0;
#X connect 3 0 2 0;
#X connect 4 0 6 1;
#X connect 4 0 9 1;
#X connect 4 0 11 1;
#X connect 4 0 13 1;
#X connect 4 0 15 1;
#X connect 6 0 5 0;
#X connect 7 0 6 1;
#X connect 7 1 9 1;
#X connect 7 2 11 1;
#X connect 7 3 13 1;
#X connect 7 4 15 1;
#X connect 9 0 8 0;
#X connect 11 0 10 0;
#X connect 13 0 12 0;
#X connect 15 0 14 0;
#X connect 16 0 7 0;
#X restore 325 364 pd swichng;
#X obj 626 337 waveunit;
#X obj 626 502 waveunit;
#X obj 626 667 waveunit;
#X obj 859 172 waveunit;
#X obj 859 337 waveunit;
#X obj 859 502 waveunit;
#X obj 859 667 waveunit;
#X obj 371 342 catch~ wav;
#X obj 195 577 myDistortion;
#X obj 194 425 myDelay;
#X text 231 320 pass;
#X text 232 336 delay;
#X text 232 353 flanger;
#X text 233 369 chorus;
#X text 233 382 distortion;
#X text 213 302 FX;
#X connect 0 0 6 1;
#X connect 0 0 16 0;
#X connect 1 0 3 0;
#X connect 1 1 4 0;
#X connect 2 0 6 0;
#X connect 2 0 15 0;
#X connect 5 0 10 0;
#X connect 5 0 30 0;
#X connect 6 0 8 0;
#X connect 6 1 9 0;
#X connect 10 0 40 0;
#X connect 10 0 41 0;
#X connect 10 1 41 0;
#X connect 10 1 40 0;
#X connect 10 2 1 0;
#X connect 10 2 12 0;
#X connect 10 3 0 0;
#X connect 10 4 2 0;
#X connect 10 5 42 0;
#X connect 10 5 45 0;
#X connect 12 0 11 0;
#X connect 19 0 21 0;
#X connect 20 0 31 0;
#X connect 20 0 47 0;
#X connect 20 0 31 1;
#X connect 21 0 24 0;
#X connect 22 0 23 0;
#X connect 23 0 25 0;
#X connect 23 2 54 0;
#X connect 23 3 58 0;
#X connect 23 4 55 0;
#X connect 23 5 59 0;
#X connect 23 6 56 0;
#X connect 23 7 60 0;
#X connect 26 0 28 0;
#X connect 26 0 25 2;
#X connect 26 0 54 2;
#X connect 26 0 55 2;
#X connect 26 0 56 2;
#X connect 26 0 57 2;
#X connect 26 0 58 2;
#X connect 26 0 59 2;
#X connect 26 0 60 2;
#X connect 27 0 26 0;
#X connect 28 0 27 0;
#X connect 32 0 49 0;
#X connect 33 0 34 0;
#X connect 34 0 37 0;
#X connect 35 0 37 1;
#X connect 36 0 33 0;
#X connect 37 0 25 1;
#X connect 37 1 57 1;
#X connect 37 2 54 1;
#X connect 37 3 58 1;
#X connect 37 4 55 1;
#X connect 37 5 59 1;
#X connect 37 6 56 1;
#X connect 37 7 60 1;
#X connect 38 0 37 1;
#X connect 39 0 19 2;
#X connect 45 0 44 0;
#X connect 46 0 37 1;
#X connect 49 0 20 1;
#X connect 50 0 20 0;
#X connect 51 0 20 0;
#X connect 52 0 53 0;
#X connect 53 0 20 0;
#X connect 53 1 63 0;
#X connect 53 2 51 0;
#X connect 53 3 50 0;
#X connect 53 4 62 0;
#X connect 61 0 53 1;
#X connect 62 0 20 0;
#X connect 63 0 20 0;
#X coords 0 -1 1 1 1024 768 2 100 100;
