#N canvas 361 22 862 737 10;
#X obj 72 332 wave_seq;
#X obj 75 220 dumpOSC 50000;
#X obj 76 253 OSCroute /bit /set /id;
#X obj 163 576 sel 0 1 2 3 4 5 6;
#X obj 162 607 bng 15 250 50 0 empty empty empty 17 7 0 10 -262144
-1 -1;
#X obj 179 607 bng 15 250 50 0 empty empty empty 17 7 0 10 -262144
-1 -1;
#X obj 196 607 bng 15 250 50 0 empty empty empty 17 7 0 10 -262144
-1 -1;
#X obj 213 607 bng 15 250 50 0 empty empty empty 17 7 0 10 -262144
-1 -1;
#X obj 230 607 bng 15 250 50 0 empty empty empty 17 7 0 10 -262144
-1 -1;
#X obj 247 607 bng 15 250 50 0 empty empty empty 17 7 0 10 -262144
-1 -1;
#X obj 264 607 bng 15 250 50 0 empty empty empty 17 7 0 10 -262144
-1 -1;
#X obj 281 607 bng 15 250 50 0 empty empty empty 17 7 0 10 -262144
-1 -1;
#X obj 298 607 bng 15 250 50 0 empty empty empty 17 7 0 10 -262144
-1 -1;
#X obj 315 607 bng 15 250 50 0 empty empty empty 17 7 0 10 -262144
-1 -1;
#X obj 332 607 bng 15 250 50 0 empty empty empty 17 7 0 10 -262144
-1 -1;
#X obj 349 607 bng 15 250 50 0 empty empty empty 17 7 0 10 -262144
-1 -1;
#X obj 366 607 bng 15 250 50 0 empty empty empty 17 7 0 10 -262144
-1 -1;
#X obj 383 607 bng 15 250 50 0 empty empty empty 17 7 0 10 -262144
-1 -1;
#X obj 282 576 sel 7 8 9 10 11 12 13;
#X floatatom 159 284 5 0 0 0 - - -;
#X obj 437 149 wav;
#X obj 116 300 s set_bit;
#X obj 712 101 r set_bit;
#X obj 430 851 dac~;
#X obj 430 820 *~;
#X floatatom 461 787 5 0 1 0 - - -;
#X obj 535 860 myScope;
#X obj 28 3 LPD8_pad;
#X obj 327 -10 LPD8_knob;
#X floatatom 47 638 5 0 0 0 - - -;
#X msg 651 102 set;
#X obj 45 605 expr $f1*200+60;
#X obj 163 551 change;
#X floatatom 210 550 5 0 0 0 - - -;
#X obj 164 505 expr ($f1+1)*7;
#X obj 162 529 int;
#X obj 98 772 makenote 127 50;
#X obj 98 803 noteout 10;
#X msg 100 717 60;
#X msg 123 740 62;
#X msg 131 716 64;
#X msg 154 739 65;
#X msg 166 714 67;
#X msg 189 737 69;
#X msg 197 713 71;
#X msg 220 736 72;
#X obj 460 649 vsl 15 128 0 1 0 0 empty empty empty 0 -9 0 10 -1 -257985
-257985 8800 1;
#X obj 477 413 myEG;
#X obj 435 526 *~;
#X obj 404 96 bng 15 250 50 0 empty empty empty 17 7 0 10 -262144 -1
-1;
#X floatatom 403 119 5 0 0 0 - - -;
#X msg 470 384 127;
#X connect 0 0 31 0;
#X connect 0 0 34 0;
#X connect 1 0 2 0;
#X connect 2 0 0 0;
#X connect 2 0 21 0;
#X connect 2 1 0 0;
#X connect 2 1 21 0;
#X connect 2 2 19 0;
#X connect 3 0 4 0;
#X connect 3 1 5 0;
#X connect 3 2 6 0;
#X connect 3 3 7 0;
#X connect 3 4 8 0;
#X connect 3 5 9 0;
#X connect 3 6 10 0;
#X connect 3 7 18 0;
#X connect 18 0 11 0;
#X connect 18 1 12 0;
#X connect 18 2 13 0;
#X connect 18 3 14 0;
#X connect 18 4 15 0;
#X connect 18 5 16 0;
#X connect 18 6 17 0;
#X connect 20 0 48 0;
#X connect 22 0 20 1;
#X connect 24 0 23 0;
#X connect 24 0 23 1;
#X connect 24 0 26 0;
#X connect 25 0 24 1;
#X connect 30 0 20 1;
#X connect 31 0 29 0;
#X connect 32 0 3 0;
#X connect 34 0 35 0;
#X connect 35 0 32 0;
#X connect 35 0 33 0;
#X connect 36 0 37 0;
#X connect 36 1 37 1;
#X connect 38 0 36 0;
#X connect 39 0 36 0;
#X connect 40 0 36 0;
#X connect 41 0 36 0;
#X connect 42 0 36 0;
#X connect 43 0 36 0;
#X connect 44 0 36 0;
#X connect 45 0 36 0;
#X connect 46 0 25 0;
#X connect 47 0 48 1;
#X connect 48 0 24 0;
#X connect 49 0 50 0;
#X connect 50 0 20 0;
#X connect 51 0 47 0;
