#N canvas 12 22 658 752 10;
#X obj 107 -71 bng 15 250 50 0 empty empty empty 17 7 0 10 -262144
-258113 -1;
#X obj 135 420 myScope;
#X obj 364 -45 cnv 1 150 60 empty empty FourierDescriptorApp 20 12
0 14 -203904 -66577 0;
#X obj 289 -44 swap;
#X obj 182 27 gate 3;
#X obj 305 -19 + 1;
#X obj 179 -5 prepend;
#X text 363 -73 Pure Data Japan 1st Session 2013.5.29;
#X obj 121 26 gate 3;
#X obj 118 -6 prepend;
#X obj 126 -73 OSCroute /pos /bits /set /bitset;
#X obj 244 27 gate 3;
#X obj 241 -5 prepend;
#X text 385 -20 Created by Tatsuya Ogusu;
#X obj 294 358 *~;
#X obj 340 397 dac~;
#X obj 20 189 knob 80 80 0 0.5 0 0 empty empty empty 0 -8 0 8 -191407
-260097 -191407 4400 1;
#X obj 116 87 wavesynth 0;
#X obj 109 -103 dumpOSC 50001;
#X obj 358 578 sendOSC;
#X msg 406 538 connect localhost 50000;
#X obj 405 514 loadbang;
#X floatatom 364 455 5 0 0 0 - - -;
#X msg 364 483 send /around_num 0 \$1;
#X obj 413 429 counter 255;
#X obj 413 376 tgl 15 0 empty empty empty 17 7 0 10 -262144 -1 -1 1
1;
#X obj 412 401 metro 3;
#X floatatom 448 380 5 0 0 0 - - -;
#X obj 410 315 loadbang;
#X msg 411 341 1;
#X obj 349 89 wavesynth02;
#X obj 307 288 tgl 15 0 empty empty empty 17 7 0 10 -262144 -1 -1 0
1;
#X obj 271 317 *~ 1;
#X obj 312 315 == 0;
#X obj 325 339 tgl 15 0 empty empty empty 17 7 0 10 -262144 -1 -1 1
1;
#X obj 345 319 *~ 0;
#X connect 3 0 6 1;
#X connect 3 0 9 1;
#X connect 3 0 12 1;
#X connect 3 1 5 0;
#X connect 4 2 17 1;
#X connect 4 2 30 1;
#X connect 5 0 4 0;
#X connect 5 0 8 0;
#X connect 5 0 11 0;
#X connect 6 0 4 1;
#X connect 9 0 8 1;
#X connect 10 0 9 0;
#X connect 10 1 6 0;
#X connect 10 2 12 0;
#X connect 10 3 3 0;
#X connect 12 0 11 1;
#X connect 14 0 15 0;
#X connect 14 0 15 1;
#X connect 14 0 1 0;
#X connect 16 0 14 1;
#X connect 17 0 32 0;
#X connect 18 0 0 0;
#X connect 18 0 10 0;
#X connect 20 0 19 0;
#X connect 21 0 20 0;
#X connect 22 0 23 0;
#X connect 23 0 19 0;
#X connect 24 0 22 0;
#X connect 25 0 26 0;
#X connect 26 0 24 0;
#X connect 27 0 26 1;
#X connect 28 0 29 0;
#X connect 29 0 25 0;
#X connect 30 0 35 0;
#X connect 31 0 32 1;
#X connect 31 0 33 0;
#X connect 32 0 14 0;
#X connect 33 0 34 0;
#X connect 33 0 35 1;
#X connect 35 0 15 0;
#X connect 35 0 15 1;
#X coords 0 752 1 751 700 580 0;
