#N canvas 94 22 1152 733 10;
#X obj 371 670 bng 15 250 50 0 empty empty empty 17 7 0 10 -262144
-1 -1;
#X floatatom 253 122 5 0 0 0 - - -;
#X obj 165 120 unpack;
#X obj 68 391 wave_seq;
#X obj 185 639 sel 0 1 2 3 4 5 6;
#X obj 184 669 bng 15 250 50 0 empty empty empty 17 7 0 10 -262144
-1 -1;
#X obj 201 670 bng 15 250 50 0 empty empty empty 17 7 0 10 -262144
-1 -1;
#X obj 218 670 bng 15 250 50 0 empty empty empty 17 7 0 10 -262144
-1 -1;
#X obj 235 670 bng 15 250 50 0 empty empty empty 17 7 0 10 -262144
-1 -1;
#X obj 252 670 bng 15 250 50 0 empty empty empty 17 7 0 10 -262144
-1 -1;
#X obj 269 670 bng 15 250 50 0 empty empty empty 17 7 0 10 -262144
-1 -1;
#X obj 286 670 bng 15 250 50 0 empty empty empty 17 7 0 10 -262144
-1 -1;
#X obj 303 670 bng 15 250 50 0 empty empty empty 17 7 0 10 -262144
-1 -1;
#X obj 320 670 bng 15 250 50 0 empty empty empty 17 7 0 10 -262144
-1 -1;
#X obj 337 670 bng 15 250 50 0 empty empty empty 17 7 0 10 -262144
-1 -1;
#X obj 354 670 bng 15 250 50 0 empty empty empty 17 7 0 10 -262144
-1 -1;
#X obj 371 670 bng 15 250 50 0 empty empty empty 17 7 0 10 -262144
-1 -1;
#X obj 388 670 bng 15 250 50 0 empty empty empty 17 7 0 10 -262144
-1 -1;
#X obj 405 670 bng 15 250 50 0 empty empty empty 17 7 0 10 -262144
-1 -1;
#X obj 304 639 sel 7 8 9 10 11 12 13;
#X obj 715 117 wav;
#X obj 452 820 *~;
#X floatatom 483 787 5 0 1 0 - - -;
#X obj 557 860 myScope;
#X floatatom 71 788 5 0 0 0 - - -;
#X msg 959 77 set;
#X obj 73 752 expr $f1*200+60;
#X obj 185 614 change;
#X floatatom 232 613 5 0 0 0 - - -;
#X obj 191 564 expr ($f1+1)*7;
#X obj 184 592 int;
#X obj 482 649 vsl 15 128 0 1 0 0 empty empty empty 0 -9 0 10 -1 -257985
-257985 12700 1;
#X obj 712 71 bng 15 250 50 0 empty empty empty 17 7 0 10 -262144 -1
-1;
#X floatatom 711 94 5 0 0 0 - - -;
#X obj 715 427 popo;
#X obj 763 583 playwave;
#X floatatom 769 550 5 0 0 0 - - -;
#X floatatom 839 554 5 0 0 0 - - -;
#X obj 453 889 output~;
#X obj 119 793 expr ($f1+1)*0.5;
#X obj 716 709 pon;
#X obj 716 680 bng 15 250 50 0 empty empty empty 17 7 0 10 -262144
-1 -1;
#X obj 715 399 tgl 15 0 empty empty empty 17 7 0 10 -262144 -1 -1 1
1;
#X floatatom 876 399 5 0 0 0 - - -;
#X floatatom 299 123 5 0 0 0 - - -;
#X floatatom 165 143 5 0 0 0 - - -;
#X floatatom 202 144 5 0 0 0 - - -;
#X obj 80 54 dumpOSC 50001;
#X obj 258 184 gate 2;
#X text 313 184 ID;
#X obj 1020 76 r set_wave1;
#X obj 31 202 s set_wave1;
#X obj 39 224 s set_wave2;
#X obj 66 362 r set_wave2;
#X obj 259 225 s \$0-id_1;
#X obj 322 225 s \$0-id_2;
#X obj 138 233 s \$0-pos_2;
#X obj 74 86 OSCroute /bit /set /pos /id /mode /del;
#X obj 151 210 s \$0-pos_1;
#X obj 955 425 r \$0-id_1;
#X floatatom 954 452 5 0 0 0 - - -;
#X obj 953 503 gate 3;
#X obj 953 476 + 1;
#X obj 1020 425 r \$0-pos_1;
#X obj 1093 426 r set_wave1;
#X obj 132 179 prepend pos;
#X obj 963 563 print pospos;
#X connect 1 0 48 1;
#X connect 2 0 45 0;
#X connect 2 1 46 0;
#X connect 3 0 26 0;
#X connect 3 0 29 0;
#X connect 3 0 39 0;
#X connect 4 0 5 0;
#X connect 4 1 6 0;
#X connect 4 2 7 0;
#X connect 4 3 8 0;
#X connect 4 4 9 0;
#X connect 4 5 10 0;
#X connect 4 6 11 0;
#X connect 4 7 19 0;
#X connect 19 0 12 0;
#X connect 19 1 13 0;
#X connect 19 2 14 0;
#X connect 19 3 15 0;
#X connect 19 4 16 0;
#X connect 19 5 17 0;
#X connect 19 6 18 0;
#X connect 21 0 23 0;
#X connect 21 0 38 0;
#X connect 21 0 38 1;
#X connect 22 0 21 1;
#X connect 25 0 20 1;
#X connect 26 0 24 0;
#X connect 27 0 4 0;
#X connect 29 0 30 0;
#X connect 30 0 27 0;
#X connect 30 0 28 0;
#X connect 31 0 22 0;
#X connect 32 0 33 0;
#X connect 33 0 20 0;
#X connect 34 0 41 0;
#X connect 35 0 40 1;
#X connect 36 0 35 0;
#X connect 37 0 35 1;
#X connect 40 0 21 0;
#X connect 41 0 40 0;
#X connect 42 0 34 0;
#X connect 43 0 34 1;
#X connect 44 0 48 0;
#X connect 47 0 57 0;
#X connect 48 0 54 0;
#X connect 48 1 55 0;
#X connect 50 0 20 1;
#X connect 53 0 3 0;
#X connect 57 0 51 0;
#X connect 57 1 52 0;
#X connect 57 2 2 0;
#X connect 57 2 65 0;
#X connect 57 3 1 0;
#X connect 57 4 44 0;
#X connect 59 0 60 0;
#X connect 60 0 62 0;
#X connect 61 0 35 2;
#X connect 61 0 66 0;
#X connect 62 0 61 0;
#X connect 63 0 61 1;
#X connect 64 0 61 1;
#X connect 65 0 56 0;
#X connect 65 0 58 0;
