#N canvas 1 22 1280 752 10;
#X obj 109 -103 dumpOSC 50001;
#X obj 447 758 *~;
#X obj 109 110 bng 15 250 50 0 empty empty empty 17 7 0 10 -262144
-258113 -1;
#X obj 446 785 dac~;
#X obj 122 478 myScope;
#X floatatom 775 695 5 0 0 0 - - -;
#X obj 348 601 myDelay;
#X obj 622 140 playwave;
#X obj 604 465 cnv 1 150 60 empty empty FourierDescriptorApp 20 12
0 14 -203904 -66577 0;
#X obj 289 -44 swap;
#X obj 182 27 gate 3;
#X obj 305 -19 + 1;
#X obj 179 -5 prepend;
#X obj 848 638 sendOSC;
#X msg 1001 562 connect localhost 50000;
#X obj 1000 538 loadbang;
#X obj 137 269 around 0;
#X text 572 101 Pure Data Japan 1st Session 2013.5.29;
#X obj 109 141 waves;
#X msg 895 564 send /seq \$1;
#X obj 465 266 around 1;
#X obj 134 26 gate 3;
#X obj 131 -6 prepend;
#X obj 444 111 ogBpm 120 1;
#X obj 754 1 counter 7;
#X obj 126 -73 OSCroute /pos /bits /set /bitset;
#X obj 244 27 gate 3;
#X obj 241 -5 prepend;
#X floatatom 226 109 5 0 0 0 * - -;
#X floatatom 302 110 5 0 0 0 hakama - -;
#X floatatom 897 537 5 0 0 0 - - -;
#X obj 898 512 r seq;
#X floatatom 754 29 5 0 0 0 - - -;
#X obj 762 58 s seq;
#X obj 488 758 *~;
#X obj -65 323 catch~ mstL;
#X obj 12 323 catch~ mstR;
#X obj 355 111 bng 15 250 50 0 empty empty init 17 7 0 10 -262144 -1
-1;
#X obj 348 545 bfilter;
#X obj 348 493 vib;
#X obj -64 392 delwrite~ \$0-tmpL 500;
#X obj -68 455 delwrite~ \$0-tmpR 500;
#X obj 505 694 delread~ \$0-tmpL 250;
#X obj 635 694 delread~ \$0-tmpR 350;
#X obj -66 366 *~ 0.5;
#X obj -72 428 *~ 0.5;
#X obj 349 693 clip~ -1 1;
#X obj 420 691 clip~ -1 1;
#X text 625 490 Created by Tatsuya Ogusu;
#X obj 678 564 knob 80 80 0 1 0 0 empty empty empty 0 -8 0 8 -191407
-260097 -191407 2100 1;
#X text 127 108 OSC receive;
#X connect 0 0 2 0;
#X connect 0 0 25 0;
#X connect 1 0 3 0;
#X connect 1 0 4 0;
#X connect 5 0 1 1;
#X connect 5 0 34 1;
#X connect 6 0 46 0;
#X connect 6 1 47 0;
#X connect 9 0 12 1;
#X connect 9 0 22 1;
#X connect 9 0 27 1;
#X connect 9 1 11 0;
#X connect 10 0 18 3;
#X connect 10 1 7 1;
#X connect 10 2 20 0;
#X connect 10 2 16 0;
#X connect 11 0 10 0;
#X connect 11 0 21 0;
#X connect 11 0 26 0;
#X connect 12 0 10 1;
#X connect 14 0 13 0;
#X connect 15 0 14 0;
#X connect 16 0 39 1;
#X connect 16 1 13 0;
#X connect 19 0 13 0;
#X connect 20 0 38 1;
#X connect 20 1 13 0;
#X connect 21 0 18 0;
#X connect 21 1 7 0;
#X connect 22 0 21 1;
#X connect 23 0 24 0;
#X connect 24 0 32 0;
#X connect 25 0 22 0;
#X connect 25 1 12 0;
#X connect 25 2 27 0;
#X connect 25 3 9 0;
#X connect 26 0 18 4;
#X connect 27 0 26 1;
#X connect 28 0 18 1;
#X connect 29 0 18 2;
#X connect 30 0 19 0;
#X connect 31 0 30 0;
#X connect 32 0 18 5;
#X connect 32 0 33 0;
#X connect 34 0 3 1;
#X connect 35 0 39 0;
#X connect 35 0 44 0;
#X connect 36 0 39 0;
#X connect 36 0 45 0;
#X connect 37 0 18 4;
#X connect 38 0 6 0;
#X connect 39 0 38 0;
#X connect 42 0 1 0;
#X connect 43 0 34 0;
#X connect 44 0 40 0;
#X connect 45 0 41 0;
#X connect 46 0 1 0;
#X connect 47 0 34 0;
#X connect 49 0 5 0;
#X coords 0 -1 1 1 700 580 2 100 100;
