#N canvas 0 22 1280 752 10;
#X obj 106 -116 dumpOSC 50001;
#X obj 198 735 *~;
#X text 130 109 OSC;
#X obj 109 110 bng 15 250 50 0 empty empty empty 17 7 0 10 -262144
-258113 -1;
#X obj 197 760 dac~;
#X obj 539 503 vsl 15 128 0 1 0 0 empty empty empty 0 -9 0 10 -99865
-257985 -1 0 1;
#X obj 578 483 myScope;
#X text 462 640 Master fader;
#X floatatom 540 639 5 0 0 0 - - -;
#X obj 199 580 myChorus;
#X obj 199 528 myFlanger;
#X obj 376 372 vradio 15 1 0 5 empty empty empty 0 -8 0 10 -262144
-1 -1 0;
#N canvas 608 216 450 300 swichng 0;
#X obj 52 42 inlet;
#X obj 274 56 inlet~;
#X obj 52 112 t f b;
#X floatatom 51 66 5 0 0 0 - - -;
#X msg 122 148 0;
#X obj 50 251 outlet~;
#X obj 51 222 *~;
#X obj 51 175 route 0 1 2 3 4;
#X obj 104 251 outlet~;
#X obj 105 222 *~;
#X obj 159 250 outlet~;
#X obj 160 221 *~;
#X obj 213 250 outlet~;
#X obj 214 221 *~;
#X obj 268 249 outlet~;
#X obj 269 220 *~;
#X obj 51 150 pack 0 1;
#X obj 111 42 loadbang;
#X msg 109 68 0;
#X connect 0 0 3 0;
#X connect 1 0 6 0;
#X connect 1 0 9 0;
#X connect 1 0 11 0;
#X connect 1 0 13 0;
#X connect 1 0 15 0;
#X connect 2 0 16 0;
#X connect 2 1 4 0;
#X connect 3 0 2 0;
#X connect 4 0 6 1;
#X connect 4 0 9 1;
#X connect 4 0 11 1;
#X connect 4 0 13 1;
#X connect 4 0 15 1;
#X connect 6 0 5 0;
#X connect 7 0 6 1;
#X connect 7 1 9 1;
#X connect 7 2 11 1;
#X connect 7 3 13 1;
#X connect 7 4 15 1;
#X connect 9 0 8 0;
#X connect 11 0 10 0;
#X connect 13 0 12 0;
#X connect 15 0 14 0;
#X connect 16 0 7 0;
#X connect 17 0 18 0;
#X connect 18 0 2 0;
#X restore 195 452 pd swichng;
#X obj 202 628 myDistortion;
#X obj 201 476 myDelay;
#X text 397 371 pass;
#X text 394 387 delay;
#X text 395 402 flanger;
#X text 396 418 chorus;
#X text 396 431 distortion;
#X text 242 424 FX;
#X obj 197 347 playwave;
#X obj 587 349 cnv 15 150 60 empty empty empty 20 12 0 14 -203904 -66577
0;
#X text 599 358 FourierDescriptorApp;
#X obj 513 458 gate 5;
#X obj 492 370 vradio 15 1 0 5 empty empty empty 0 -8 0 10 -262144
-1 -1 0;
#X text 513 369 pass;
#X text 510 385 delay;
#X text 511 400 flanger;
#X text 512 416 chorus;
#X text 512 429 distortion;
#X obj 372 66 gate;
#X obj 197 129 tgl 15 0 empty empty empty 17 7 0 10 -262144 -1 -1 0
1;
#X obj 420 66 gate;
#X obj 492 131 tgl 15 0 empty empty empty 17 7 0 10 -262144 -1 -1 0
1;
#X text 217 128 receive osc;
#X text 512 130 receive osc;
#X obj 172 347 tgl 15 0 empty empty empty 17 7 0 10 -262144 -1 -1 0
1;
#X text 117 362 receive osc;
#X obj 466 66 gate;
#X floatatom 108 136 5 0 0 0 - - -;
#X text 145 134 id;
#X text 572 101 Pure Data Japan 1st Session 2013.5.29;
#X text 599 373 Tatsuya Ogusu;
#N canvas 622 429 450 300 scaling 0;
#X floatatom 53 34 5 0 0 0 - - -;
#X floatatom 195 33 5 0 0 0 - - -;
#X floatatom 233 33 5 0 0 0 - - -;
#X obj 58 89 expr (($f1+1)/2) * ($f3-$f2) + $f2;
#X obj 59 3 inlet;
#X obj 224 7 inlet;
#X obj 264 6 inlet;
#X obj 59 155 outlet;
#X text 103 34 output min/max;
#X connect 0 0 3 0;
#X connect 1 0 3 1;
#X connect 2 0 3 2;
#X connect 3 0 7 0;
#X connect 4 0 0 0;
#X connect 5 0 1 0;
#X connect 6 0 2 0;
#X coords 0 -1 1 1 240 30 2 40 25;
#X restore 197 289 pd scaling;
#N canvas 502 203 450 300 scaling 0;
#X floatatom 53 34 5 0 0 0 - - -;
#X floatatom 195 33 5 0 0 0 - - -;
#X floatatom 233 33 5 0 0 0 - - -;
#X obj 58 89 expr (($f1+1)/2) * ($f3-$f2) + $f2;
#X obj 59 3 inlet;
#X obj 224 7 inlet;
#X obj 264 6 inlet;
#X obj 59 155 outlet;
#X text 103 34 output min/max;
#X obj 295 31 loadbang;
#X msg 294 57 24;
#X msg 323 57 36;
#X connect 0 0 3 0;
#X connect 1 0 3 1;
#X connect 2 0 3 2;
#X connect 3 0 7 0;
#X connect 4 0 0 0;
#X connect 5 0 1 0;
#X connect 6 0 2 0;
#X connect 9 0 10 0;
#X connect 9 0 11 0;
#X connect 10 0 2 0;
#X connect 11 0 1 0;
#X coords 0 -1 1 1 240 30 2 40 25;
#X restore 493 287 pd scaling;
#X floatatom 197 324 5 0 0 0 - - -;
#X floatatom 493 322 5 0 0 0 - - -;
#X obj 123 -91 OSCroute /bits /bitset;
#X obj 186 -67 swap;
#X obj 127 6 gate 3;
#X obj 202 -42 + 1;
#X obj 197 159 wave_seq;
#X obj 493 159 wave_seq;
#X obj 162 37 waveseq_unit 3;
#X obj 124 -37 prepend;
#X obj 884 489 sendOSC;
#X msg 990 441 connect localhost 50000;
#X obj 989 417 loadbang;
#X obj 826 -52 around 0;
#X connect 0 0 3 0;
#X connect 0 0 48 0;
#X connect 1 0 4 0;
#X connect 1 0 6 0;
#X connect 1 0 4 1;
#X connect 5 0 8 0;
#X connect 8 0 1 1;
#X connect 9 0 1 0;
#X connect 10 0 1 0;
#X connect 11 0 12 0;
#X connect 12 0 1 0;
#X connect 12 1 14 0;
#X connect 12 2 10 0;
#X connect 12 3 9 0;
#X connect 12 4 13 0;
#X connect 13 0 1 0;
#X connect 14 0 1 0;
#X connect 21 0 12 1;
#X connect 24 0 14 1;
#X connect 24 1 10 2;
#X connect 24 2 9 1;
#X connect 24 3 13 1;
#X connect 25 0 24 0;
#X connect 31 0 52 2;
#X connect 32 0 31 0;
#X connect 33 0 53 2;
#X connect 34 0 33 0;
#X connect 37 0 39 0;
#X connect 39 0 21 2;
#X connect 44 0 46 0;
#X connect 45 0 47 0;
#X connect 46 0 21 0;
#X connect 47 0 24 1;
#X connect 48 0 55 0;
#X connect 48 1 49 0;
#X connect 49 0 55 1;
#X connect 49 1 51 0;
#X connect 50 2 54 0;
#X connect 51 0 50 0;
#X connect 52 0 44 0;
#X connect 53 0 45 0;
#X connect 55 0 50 1;
#X connect 57 0 56 0;
#X connect 58 0 57 0;
#X coords 0 -1 1 1 700 580 2 100 100;
