#N canvas 570 114 518 409 10;
#N canvas 0 22 450 278 (subpatch) 0;
#X array \$0-wav 259 float 0;
#X coords 0 1 258 -1 60 40 1 0 0;
#X restore 100 114 graph;
#X obj 200 91 inlet;
#X obj 203 205 tabwrite \$0-wav;
#X obj 203 125 unpack;
#X floatatom 108 159 7 0 0 0 - - -;
#X obj 186 379 outlet~;
#X obj 61 203 phasor~;
#X obj 59 249 tabread4~ \$0-wav;
#X obj 59 227 *~ 255;
#X obj 70 65 inlet;
#X obj 184 245 tabosc4~ \$0-wav;
#X obj 331 84 inlet;
#X obj 330 110 bng 15 250 50 0 empty empty empty 17 7 0 10 -262144
-1 -1;
#X obj 330 133 uzi 259;
#X obj 369 157 - 1;
#X msg 329 157 0;
#X obj 189 350 *~;
#X obj 296 317 line~;
#X msg 298 274 0 20;
#X msg 352 283 1 20;
#X obj 309 208 bng 15 250 50 0 empty empty empty 17 7 0 10 -262144
-1 -1;
#X obj 298 245 onebang;
#X obj 405 232 loadbang;
#X obj 351 238 del 50;
#X connect 1 0 3 0;
#X connect 3 0 2 0;
#X connect 3 0 20 0;
#X connect 3 1 2 1;
#X connect 4 0 6 0;
#X connect 4 0 10 0;
#X connect 6 0 8 0;
#X connect 8 0 7 0;
#X connect 9 0 4 0;
#X connect 10 0 16 0;
#X connect 11 0 12 0;
#X connect 12 0 13 0;
#X connect 13 0 15 0;
#X connect 13 2 14 0;
#X connect 14 0 2 1;
#X connect 15 0 2 0;
#X connect 16 0 5 0;
#X connect 17 0 16 1;
#X connect 18 0 17 0;
#X connect 19 0 17 0;
#X connect 20 0 21 0;
#X connect 20 0 23 0;
#X connect 21 0 18 0;
#X connect 22 0 19 0;
#X connect 23 0 19 0;
#X connect 23 0 21 1;
#X coords 0 -1 1 1 60 80 2 100 100;
