#N canvas 207 109 1022 584 10;
#N canvas 0 22 450 278 (subpatch) 0;
#X array \$0-seq 12 float 3;
#A 0 0 0 0 0 0 0 0 0 0 0 0 0;
#X coords 0 1 12 0 180 15 1 0 0;
#X restore 325 264 graph;
#X obj 325 282 tgl 15 0 empty empty empty 17 7 0 10 -232576 -1 -1 0
1;
#X obj 340 282 tgl 15 0 empty empty empty 17 7 0 10 -262144 -1 -1 0
1;
#X obj 355 282 tgl 15 0 empty empty empty 17 7 0 10 -262144 -1 -1 0
1;
#X obj 370 282 tgl 15 0 empty empty empty 17 7 0 10 -262144 -1 -1 0
1;
#X obj 385 282 tgl 15 0 empty empty empty 17 7 0 10 -232576 -1 -1 0
1;
#X obj 400 282 tgl 15 0 empty empty empty 17 7 0 10 -262144 -1 -1 0
1;
#X obj 415 282 tgl 15 0 empty empty empty 17 7 0 10 -262144 -1 -1 0
1;
#X obj 430 282 tgl 15 0 empty empty empty 17 7 0 10 -262144 -1 -1 0
1;
#X obj 475 282 tgl 15 0 empty empty empty 17 7 0 10 -262144 -1 -1 0
1;
#X obj 460 282 tgl 15 0 empty empty empty 17 7 0 10 -262144 -1 -1 0
1;
#X obj 445 282 tgl 15 0 empty empty empty 17 7 0 10 -232576 -1 -1 0
1;
#X obj 490 282 tgl 15 0 empty empty empty 17 7 0 10 -262144 -1 -1 0
1;
#X obj 352 448 unpack 0 0;
#X obj 352 481 tgl 15 0 empty empty empty 17 7 0 10 -262144 -1 -1 0
1;
#X msg 328 378 \$1 0;
#X floatatom 352 507 5 0 0 0 - - -;
#X floatatom 390 506 5 0 0 0 - - -;
#X obj 350 541 tabwrite \$0-seq;
#X msg 349 400 \$1 1;
#X msg 366 378 \$1 2;
#X msg 387 400 \$1 3;
#X msg 402 376 \$1 4;
#X msg 423 398 \$1 5;
#X msg 440 376 \$1 6;
#X msg 461 398 \$1 7;
#X msg 478 375 \$1 8;
#X msg 499 397 \$1 9;
#X msg 518 374 \$1 10;
#X msg 539 396 \$1 11;
#X msg 722 75 1 0 1 0 1 1 0 1 0 1 1 0;
#X obj 682 259 iter;
#X msg 718 260 goto 0;
#X obj 718 317 counter;
#X obj 683 343 pack;
#X obj 683 288 t f b;
#X text 686 9 presets;
#X obj 353 147 tabread \$0-seq;
#X obj 329 67 uzi 12;
#X obj 330 95 - 1;
#X obj 330 42 bng 15 250 50 0 empty empty empty 17 7 0 10 -262144 -1
-1;
#X obj 325 197 route 0 1 2 3 4 5 6 7 8 9 10 11;
#X obj 326 171 pack;
#X obj 329 120 t f f;
#X text 352 41 set toggles from table;
#X obj 692 191 t b l b;
#X msg 735 103 1 1 1 0 1 1 0 1 0 1 1 0;
#X msg 750 132 1 0 1 0 1 0 1 0 1 0 1 0;
#X msg 760 163 1 0 0 1 0 0 1 0 0 1 0 0;
#X obj 72 248 tabread \$0-seq;
#X obj 78 93 tgl 15 0 empty empty empty 17 7 0 10 -262144 -1 -1 1 1
;
#X obj 155 341 tgl 15 0 empty empty empty 17 7 0 10 -262144 -1 -1 0
1;
#X obj 75 295 sel 1;
#X obj 73 341 bng 15 250 50 0 empty empty empty 17 7 0 10 -262144 -1
-1;
#X obj 77 34 inlet;
#X obj 329 302 hsl 175 8 0 12 0 0 empty empty empty -2 -8 0 10 -262144
-4160 -1 1450 1;
#X obj 75 192 counter 0 11;
#X obj 72 400 outlet;
#X obj 155 397 outlet;
#X floatatom 139 88 5 0 0 0 - - -;
#X obj 139 34 inlet;
#X floatatom 420 243 5 0 0 0 - - -;
#X obj 575 345 s \$0-metro;
#X obj 182 54 r \$0-metro;
#X obj 556 188 loadbang;
#X text 453 244 interbal;
#X obj 326 317 bng 15 250 50 0 empty empty empty 17 7 0 10 -262144
-1 -1;
#X obj 345 317 tgl 15 0 empty empty empty 17 7 0 10 -262144 -1 -1 0
1;
#X text 368 315 [0]bang [1]toggle;
#X msg 691 48 0 0 0 0 0 0 0 0 0 0 0 0;
#X obj 573 313 s \$0-run;
#X obj 372 244 tgl 15 0 empty empty empty 17 7 0 10 -262144 -1 -1 1
1;
#X text 390 242 run;
#X obj 97 58 r \$0-run;
#X msg 557 211 150;
#X obj 75 162 metro 150;
#X obj 16 124 sel 1;
#X msg 18 150 goto 0;
#X obj 164 160 prepend set;
#X obj 165 125 prepend set;
#X obj 684 27 loadbang;
#X connect 1 0 15 0;
#X connect 2 0 19 0;
#X connect 3 0 20 0;
#X connect 4 0 21 0;
#X connect 5 0 22 0;
#X connect 6 0 23 0;
#X connect 7 0 24 0;
#X connect 8 0 25 0;
#X connect 9 0 28 0;
#X connect 10 0 27 0;
#X connect 11 0 26 0;
#X connect 12 0 29 0;
#X connect 13 0 14 0;
#X connect 13 1 17 0;
#X connect 14 0 16 0;
#X connect 15 0 13 0;
#X connect 16 0 18 0;
#X connect 17 0 18 1;
#X connect 19 0 13 0;
#X connect 20 0 13 0;
#X connect 21 0 13 0;
#X connect 22 0 13 0;
#X connect 23 0 13 0;
#X connect 24 0 13 0;
#X connect 25 0 13 0;
#X connect 26 0 13 0;
#X connect 27 0 13 0;
#X connect 28 0 13 0;
#X connect 29 0 13 0;
#X connect 30 0 45 0;
#X connect 31 0 35 0;
#X connect 32 0 33 0;
#X connect 33 0 34 1;
#X connect 34 0 13 0;
#X connect 35 0 34 0;
#X connect 35 1 33 0;
#X connect 37 0 42 1;
#X connect 38 2 39 0;
#X connect 39 0 43 0;
#X connect 40 0 38 0;
#X connect 41 0 1 0;
#X connect 41 1 2 0;
#X connect 41 2 3 0;
#X connect 41 3 4 0;
#X connect 41 4 5 0;
#X connect 41 5 6 0;
#X connect 41 6 7 0;
#X connect 41 7 8 0;
#X connect 41 8 11 0;
#X connect 41 9 10 0;
#X connect 41 10 9 0;
#X connect 41 11 12 0;
#X connect 42 0 41 0;
#X connect 43 0 42 0;
#X connect 43 1 37 0;
#X connect 45 0 40 0;
#X connect 45 1 31 0;
#X connect 45 2 32 0;
#X connect 46 0 45 0;
#X connect 47 0 45 0;
#X connect 48 0 45 0;
#X connect 49 0 51 0;
#X connect 49 0 52 0;
#X connect 49 0 67 0;
#X connect 50 0 76 0;
#X connect 50 0 75 0;
#X connect 50 0 78 0;
#X connect 51 0 58 0;
#X connect 52 0 53 0;
#X connect 52 0 66 0;
#X connect 53 0 57 0;
#X connect 54 0 50 0;
#X connect 56 0 49 0;
#X connect 56 0 55 0;
#X connect 59 0 75 1;
#X connect 59 0 79 0;
#X connect 60 0 59 0;
#X connect 61 0 62 0;
#X connect 63 0 59 0;
#X connect 64 0 74 0;
#X connect 69 0 45 0;
#X connect 71 0 70 0;
#X connect 73 0 50 0;
#X connect 74 0 61 0;
#X connect 75 0 56 0;
#X connect 76 0 77 0;
#X connect 77 0 56 0;
#X connect 78 0 71 0;
#X connect 79 0 61 0;
#X connect 80 0 69 0;
#X coords 0 -1 1 1 190 110 1 320 230;
