#N canvas 430 228 466 437 10;
#X obj 23 26 inlet;
#X obj 81 26 inlet;
#X obj 122 26 inlet;
#X obj 201 26 inlet;
#X obj 241 26 inlet;
#X floatatom 81 86 5 0 0 0 - - -;
#X floatatom 122 86 5 0 0 0 - - -;
#X floatatom 23 86 5 0 0 0 - - -;
#X obj 23 118 expr $f1/($f3 - $f2);
#X floatatom 23 153 5 0 0 0 - - -;
#X floatatom 201 88 5 0 0 0 - - -;
#X floatatom 241 88 5 0 0 0 - - -;
#X floatatom 23 256 5 0 0 0 - - -;
#X obj 23 304 outlet;
#X obj 80 60 f \$1;
#X obj 121 60 f \$2;
#X obj 200 60 f \$3;
#X obj 240 60 f \$4;
#X obj 279 28 loadbang;
#X obj 23 221 expr ($f3 - $f2)* $f1 + $f2;
#X connect 0 0 7 0;
#X connect 1 0 14 0;
#X connect 2 0 15 0;
#X connect 3 0 16 0;
#X connect 4 0 17 0;
#X connect 5 0 8 1;
#X connect 6 0 8 2;
#X connect 7 0 8 0;
#X connect 8 0 9 0;
#X connect 9 0 19 0;
#X connect 10 0 19 1;
#X connect 11 0 19 2;
#X connect 12 0 13 0;
#X connect 14 0 5 0;
#X connect 15 0 6 0;
#X connect 16 0 10 0;
#X connect 17 0 11 0;
#X connect 18 0 14 0;
#X connect 18 0 15 0;
#X connect 18 0 16 0;
#X connect 18 0 17 0;
#X connect 19 0 12 0;
#X coords 0 437 1 436 200 40 0;
