#N canvas 765 78 468 574 10;
#X obj 60 148 wav;
#X obj 60 385 clip~ -1 1;
#X floatatom 241 110 5 0 0 0 - - -;
#X floatatom 53 106 5 0 0 0 - - -;
#X obj 66 513 output~;
#X obj 66 472 *~;
#X obj 95 473 *~;
#X obj 116 409 hsl 128 15 0 1 0 0 empty empty empty -2 -8 0 10 -262144
-1 -1 1200 1;
#X obj 120 438 expr -$f1+1;
#X connect 0 0 1 0;
#X connect 1 0 5 0;
#X connect 1 0 6 0;
#X connect 2 0 0 1;
#X connect 3 0 0 0;
#X connect 5 0 4 0;
#X connect 6 0 4 1;
#X connect 7 0 5 1;
#X connect 7 0 8 0;
#X connect 8 0 6 1;
