#N canvas 704 267 460 463 10;
#X obj 257 48 inlet;
#X obj 33 45 inlet~;
#X obj 132 277 delwrite~ \$0-del 1000;
#X floatatom 257 119 5 0 0 0 - - -;
#X obj 82 244 *~ 0.5;
#X obj 132 244 *~ 0.5;
#X obj 124 119 hsl 128 15 0 1 0 0 empty empty empty -2 -8 0 10 -262144
-1 -1 12700 1;
#X obj 127 211 abs;
#X obj 127 188 - 1;
#X obj 103 119 tgl 15 0 empty empty empty 17 7 0 10 -262144 -1 -1 1
1;
#X obj 69 164 *~ 1;
#X obj 32 164 *~ 0;
#X obj 100 46 loadbang;
#X msg 101 68 1;
#X obj 286 298 line~;
#X msg 286 276 \$1 20;
#X obj 286 318 vd~ \$0-del;
#X obj 31 428 outlet~;
#X text 104 99 VIBRATION;
#X obj 46 138 == 0;
#X connect 0 0 3 0;
#X connect 1 0 11 0;
#X connect 1 0 10 0;
#X connect 3 0 15 0;
#X connect 4 0 17 0;
#X connect 5 0 2 0;
#X connect 6 0 5 1;
#X connect 6 0 8 0;
#X connect 7 0 4 1;
#X connect 8 0 7 0;
#X connect 9 0 10 1;
#X connect 9 0 19 0;
#X connect 10 0 4 0;
#X connect 10 0 5 0;
#X connect 11 0 17 0;
#X connect 12 0 13 0;
#X connect 13 0 9 0;
#X connect 13 0 6 0;
#X connect 14 0 16 0;
#X connect 15 0 14 0;
#X connect 16 0 17 0;
#X connect 19 0 11 1;
#X coords 0 -1 1 1 200 40 2 100 100;
