#N canvas 15 153 835 540 10;
#X obj 398 -8 inlet;
#X obj 103 104 onewave;
#X obj 398 29 route 0 1 2 3 4 5 6 7;
#X obj 131 -32 inlet;
#X text 166 -32 input pos;
#X text 437 -3 input bits;
#X floatatom 18 49 5 0 0 0 - - -;
#X floatatom 17 71 5 0 0 0 - - -;
#X obj 32 20 unpack 0 0 0;
#X floatatom 17 94 5 0 0 0 - - -;
#X text 16 112 pos \, x \, y;
#N canvas 143 186 873 434 plays----------------------------------------------------
0;
#X obj 64 223 duration;
#X obj -46 -2 inlet~;
#X obj 60 367 outlet~;
#X obj 13 -2 inlet~;
#X obj 70 -3 inlet~;
#X obj 129 -3 inlet~;
#X obj 190 -2 inlet~;
#X obj 249 -2 inlet~;
#X obj 306 -3 inlet~;
#X obj 365 -3 inlet~;
#X obj 449 -19 inlet;
#X obj 106 184 bng 15 250 50 0 empty empty empty 17 7 0 10 -262144
-1 -1;
#X obj 156 187 bng 15 250 50 0 empty empty empty 17 7 0 10 -262144
-1 -1;
#X obj 215 187 bng 15 250 50 0 empty empty empty 17 7 0 10 -262144
-1 -1;
#X obj 276 190 bng 15 250 50 0 empty empty empty 17 7 0 10 -262144
-1 -1;
#X obj 325 191 bng 15 250 50 0 empty empty empty 17 7 0 10 -262144
-1 -1;
#X obj 375 193 bng 15 250 50 0 empty empty empty 17 7 0 10 -262144
-1 -1;
#X obj 434 193 bng 15 250 50 0 empty empty empty 17 7 0 10 -262144
-1 -1;
#X obj 495 196 bng 15 250 50 0 empty empty empty 17 7 0 10 -262144
-1 -1;
#X obj 451 5 sel 0 1 2 3 4 5 6 7;
#X obj 123 223 duration;
#X obj 180 222 duration;
#X obj 239 222 duration;
#X obj 300 223 duration;
#X obj 359 223 duration;
#X obj 416 222 duration;
#X obj 475 222 duration;
#X obj 609 6 r x0;
#X obj 606 30 r x1;
#X obj 606 56 r x2;
#X obj 610 83 r x3;
#X obj 660 4 r x4;
#X obj 659 29 r x5;
#X obj 662 52 r x6;
#X obj 663 76 r x7;
#X obj 474 364 outlet~;
#X connect 0 0 2 0;
#X connect 0 1 35 0;
#X connect 1 0 0 0;
#X connect 3 0 20 0;
#X connect 4 0 21 0;
#X connect 5 0 22 0;
#X connect 6 0 23 0;
#X connect 7 0 24 0;
#X connect 8 0 25 0;
#X connect 9 0 26 0;
#X connect 10 0 19 0;
#X connect 11 0 0 1;
#X connect 12 0 20 1;
#X connect 13 0 21 1;
#X connect 14 0 22 1;
#X connect 15 0 23 1;
#X connect 16 0 24 1;
#X connect 17 0 25 1;
#X connect 18 0 26 1;
#X connect 19 0 11 0;
#X connect 19 1 12 0;
#X connect 19 2 13 0;
#X connect 19 3 14 0;
#X connect 19 4 15 0;
#X connect 19 5 16 0;
#X connect 19 6 17 0;
#X connect 19 7 18 0;
#X connect 20 0 2 0;
#X connect 20 1 35 0;
#X connect 21 0 2 0;
#X connect 21 1 35 0;
#X connect 22 0 2 0;
#X connect 22 1 35 0;
#X connect 23 0 2 0;
#X connect 23 1 35 0;
#X connect 24 0 2 0;
#X connect 24 1 35 0;
#X connect 25 0 2 0;
#X connect 25 1 35 0;
#X connect 26 0 2 0;
#X connect 26 1 35 0;
#X connect 27 0 0 2;
#X connect 28 0 20 2;
#X connect 29 0 21 2;
#X connect 30 0 22 2;
#X connect 31 0 23 2;
#X connect 32 0 24 2;
#X connect 33 0 25 2;
#X connect 34 0 26 2;
#X restore 103 251 pd plays----------------------------------------------------
;
#X floatatom 702 171 5 0 0 0 - - -;
#N canvas 404 165 724 380 route--------------------- 0;
#X obj 81 28 inlet;
#X obj 82 50 route 0 1 2 3 4 5 6 7;
#X obj 81 298 outlet;
#X obj 81 246 * 200;
#X obj 39 96 unpack;
#X obj 81 270 + 20;
#X obj 129 296 outlet;
#X obj 129 244 * 200;
#X obj 129 268 + 20;
#X obj 177 297 outlet;
#X obj 177 245 * 200;
#X obj 177 269 + 20;
#X obj 225 295 outlet;
#X obj 225 243 * 200;
#X obj 225 267 + 20;
#X obj 275 294 outlet;
#X obj 275 242 * 200;
#X obj 275 266 + 20;
#X obj 323 292 outlet;
#X obj 323 240 * 200;
#X obj 323 264 + 20;
#X obj 371 293 outlet;
#X obj 371 241 * 200;
#X obj 371 265 + 20;
#X obj 419 291 outlet;
#X obj 419 239 * 200;
#X obj 419 263 + 20;
#X floatatom 468 106 5 0 0 0 - - -;
#X floatatom 508 104 5 0 0 0 - - -;
#X obj 88 97 unpack;
#X obj 136 98 unpack;
#X obj 185 99 unpack;
#X obj 230 99 unpack;
#X obj 279 100 unpack;
#X obj 327 101 unpack;
#X obj 376 102 unpack;
#X obj 467 44 inlet;
#X obj 513 44 inlet;
#X obj -41 175 s x0;
#X obj -33 195 s x1;
#X obj -23 212 s x2;
#X obj -15 232 s x3;
#X obj 2 176 s x4;
#X obj 10 196 s x5;
#X obj 20 213 s x6;
#X obj 28 233 s x7;
#X obj 81 197 - 1;
#X obj 80 221 abs;
#X obj 130 196 - 1;
#X obj 129 220 abs;
#X obj 181 196 - 1;
#X obj 180 220 abs;
#X obj 230 195 - 1;
#X obj 229 219 abs;
#X obj 276 195 - 1;
#X obj 275 219 abs;
#X obj 325 194 - 1;
#X obj 324 218 abs;
#X obj 376 194 - 1;
#X obj 375 218 abs;
#X obj 425 193 - 1;
#X obj 424 217 abs;
#X connect 0 0 1 0;
#X connect 1 0 4 0;
#X connect 1 1 29 0;
#X connect 1 2 30 0;
#X connect 1 3 31 0;
#X connect 1 4 32 0;
#X connect 1 5 33 0;
#X connect 1 6 34 0;
#X connect 1 7 35 0;
#X connect 3 0 5 0;
#X connect 4 0 38 0;
#X connect 4 1 46 0;
#X connect 5 0 2 0;
#X connect 7 0 8 0;
#X connect 8 0 6 0;
#X connect 10 0 11 0;
#X connect 11 0 9 0;
#X connect 13 0 14 0;
#X connect 14 0 12 0;
#X connect 16 0 17 0;
#X connect 17 0 15 0;
#X connect 19 0 20 0;
#X connect 20 0 18 0;
#X connect 22 0 23 0;
#X connect 23 0 21 0;
#X connect 25 0 26 0;
#X connect 26 0 24 0;
#X connect 27 0 7 1;
#X connect 27 0 10 1;
#X connect 27 0 13 1;
#X connect 27 0 16 1;
#X connect 27 0 19 1;
#X connect 27 0 22 1;
#X connect 27 0 25 1;
#X connect 27 0 3 1;
#X connect 28 0 5 1;
#X connect 28 0 8 1;
#X connect 28 0 11 1;
#X connect 28 0 14 1;
#X connect 28 0 17 1;
#X connect 28 0 20 1;
#X connect 28 0 23 1;
#X connect 28 0 26 1;
#X connect 29 0 39 0;
#X connect 29 1 48 0;
#X connect 30 0 40 0;
#X connect 30 1 50 0;
#X connect 31 0 41 0;
#X connect 31 1 52 0;
#X connect 32 0 42 0;
#X connect 32 1 54 0;
#X connect 33 0 43 0;
#X connect 33 1 56 0;
#X connect 34 0 44 0;
#X connect 34 1 58 0;
#X connect 35 0 45 0;
#X connect 35 1 60 0;
#X connect 36 0 27 0;
#X connect 37 0 28 0;
#X connect 46 0 47 0;
#X connect 47 0 3 0;
#X connect 48 0 49 0;
#X connect 49 0 7 0;
#X connect 50 0 51 0;
#X connect 51 0 10 0;
#X connect 52 0 53 0;
#X connect 53 0 13 0;
#X connect 54 0 55 0;
#X connect 55 0 16 0;
#X connect 56 0 57 0;
#X connect 57 0 19 0;
#X connect 58 0 59 0;
#X connect 59 0 22 0;
#X connect 60 0 61 0;
#X connect 61 0 25 0;
#X restore 135 41 pd route---------------------;
#X floatatom 213 14 5 0 0 0 * - -;
#X floatatom 303 14 5 0 0 0 hakama - -;
#X obj 706 -5 inlet;
#X text 749 -2 input seq;
#X obj 129 186 bng 10 250 50 0 empty empty empty 17 7 0 10 -99865 -257985
-1;
#X obj 708 213 sel 0 1 2 3 4 5 6 7;
#X obj 189 186 bng 10 250 50 0 empty empty empty 17 7 0 10 -99865 -257985
-1;
#X obj 251 186 bng 10 250 50 0 empty empty empty 17 7 0 10 -99865 -257985
-1;
#X obj 312 186 bng 10 250 50 0 empty empty empty 17 7 0 10 -99865 -257985
-1;
#X obj 378 186 bng 10 250 50 0 empty empty empty 17 7 0 10 -99865 -257985
-1;
#X obj 438 186 bng 10 250 50 0 empty empty empty 17 7 0 10 -99865 -257985
-1;
#X obj 500 186 bng 10 250 50 0 empty empty empty 17 7 0 10 -99865 -257985
-1;
#X obj 561 186 bng 10 250 50 0 empty empty empty 17 7 0 10 -99865 -257985
-1;
#X obj 529 -22 inlet;
#X obj 547 27 route 0 1 2 3 4 5 6 7;
#X text 563 -25 input set;
#X obj 649 -23 uzi 8;
#X obj 674 -1 - 1;
#X obj 625 -23 bng 15 250 50 0 empty empty empty 17 7 0 10 -262144
-1 -1;
#X obj 255 -30 inlet;
#X obj 301 -30 inlet;
#X obj 95 403 throw~ mstL;
#X obj 442 398 throw~ mstR;
#X obj 165 104 onewave;
#X obj 227 104 onewave;
#X obj 289 104 onewave;
#X obj 351 104 onewave;
#X obj 413 104 onewave;
#X obj 475 104 onewave;
#X obj 537 104 onewave;
#X obj 531 0 route bang;
#X connect 0 0 2 0;
#X connect 1 0 11 0;
#X connect 2 0 1 1;
#X connect 2 1 37 1;
#X connect 2 2 38 1;
#X connect 2 3 39 1;
#X connect 2 4 40 1;
#X connect 2 5 41 1;
#X connect 2 6 42 1;
#X connect 2 7 43 1;
#X connect 3 0 8 0;
#X connect 3 0 13 0;
#X connect 8 0 6 0;
#X connect 8 1 7 0;
#X connect 8 2 9 0;
#X connect 11 0 35 0;
#X connect 11 1 36 0;
#X connect 12 0 11 8;
#X connect 12 0 19 0;
#X connect 13 0 1 0;
#X connect 13 1 37 0;
#X connect 13 2 38 0;
#X connect 13 3 39 0;
#X connect 13 4 40 0;
#X connect 13 5 41 0;
#X connect 13 6 42 0;
#X connect 13 7 43 0;
#X connect 14 0 13 1;
#X connect 15 0 13 2;
#X connect 16 0 12 0;
#X connect 19 0 18 0;
#X connect 19 1 20 0;
#X connect 19 2 21 0;
#X connect 19 3 22 0;
#X connect 19 4 23 0;
#X connect 19 5 24 0;
#X connect 19 6 25 0;
#X connect 19 7 26 0;
#X connect 27 0 44 0;
#X connect 28 0 1 2;
#X connect 28 1 37 2;
#X connect 28 2 38 2;
#X connect 28 3 39 2;
#X connect 28 4 40 2;
#X connect 28 5 41 2;
#X connect 28 6 42 2;
#X connect 28 7 43 2;
#X connect 30 2 31 0;
#X connect 31 0 28 0;
#X connect 32 0 30 0;
#X connect 33 0 14 0;
#X connect 34 0 15 0;
#X connect 37 0 11 1;
#X connect 38 0 11 2;
#X connect 39 0 11 3;
#X connect 40 0 11 4;
#X connect 41 0 11 5;
#X connect 42 0 11 6;
#X connect 43 0 11 7;
#X connect 44 0 32 0;
#X connect 44 1 28 0;
#X coords 0 -1 1 1 500 100 2 100 100;
