#N canvas 40 99 648 639 10;
#X obj 108 417 osc~ 200;
#N canvas 0 22 450 278 (subpatch) 0;
#X array \$0-lfo 515 float 0;
#X coords 0 1 514 -1 200 140 1 0 0;
#X restore 105 116 graph;
#X floatatom 128 263 5 0 0 0 - - -;
#X floatatom 262 263 7 0 0 0 - - -;
#X obj 167 264 hsl 90 15 60 2400 0 0 empty empty empty -2 -8 0 10 -262144
-1 -1 1445 1;
#X obj 107 263 tgl 15 0 empty empty empty 17 7 0 10 -262144 -1 -1 1
1;
#X obj 21 183 loadbang;
#X msg 23 214 1;
#X obj 108 314 tabosc4~ \$0-lfo;
#X obj 109 484 *~ 1;
#X obj 111 552 outlet~;
#X obj 108 374 +~ 440;
#X obj 108 343 *~ 880;
#X msg 53 214 440;
#X obj 324 116 inlet;
#X obj 385 385 tabwrite \$0-lfo;
#X obj 386 116 inlet;
#X text 429 115 get bits;
#X obj 386 243 unpack;
#X obj 433 242 unpack;
#X obj 482 275 * 2;
#X obj 440 315 + 1;
#X obj 433 343 int;
#X obj 422 315 bng 15 250 50 0 empty empty empty 17 7 0 10 -262144
-1 -1;
#X obj 386 185 route \$1;
#X obj 490 145 int \$1;
#X obj 495 118 loadbang;
#X obj 495 170 print;
#X obj 317 427 outlet;
#X connect 0 0 9 0;
#X connect 2 0 8 0;
#X connect 2 0 28 0;
#X connect 3 0 11 1;
#X connect 4 0 3 0;
#X connect 5 0 9 1;
#X connect 6 0 7 0;
#X connect 6 0 13 0;
#X connect 7 0 5 0;
#X connect 7 0 2 0;
#X connect 8 0 12 0;
#X connect 9 0 10 0;
#X connect 11 0 0 0;
#X connect 12 0 11 0;
#X connect 13 0 4 0;
#X connect 14 0 4 0;
#X connect 16 0 24 0;
#X connect 18 0 15 0;
#X connect 18 1 23 0;
#X connect 19 0 15 0;
#X connect 19 1 20 0;
#X connect 20 0 15 1;
#X connect 20 0 21 0;
#X connect 21 0 22 1;
#X connect 22 0 15 1;
#X connect 23 0 22 0;
#X connect 24 0 18 0;
#X connect 24 0 19 0;
#X connect 25 0 27 0;
#X connect 26 0 25 0;
#X coords 0 -1 1 1 210 185 2 100 100;
