#N canvas 573 141 526 444 10;
#X obj 118 51 inlet;
#X obj -70 161 wave_seq;
#N canvas 502 203 450 300 scaling 0;
#X floatatom 53 34 5 0 0 0 - - -;
#X floatatom 195 33 5 0 0 0 - - -;
#X floatatom 233 33 5 0 0 0 - - -;
#X obj 58 89 expr (($f1+1)/2) * ($f3-$f2) + $f2;
#X obj 59 3 inlet;
#X obj 224 7 inlet;
#X obj 264 6 inlet;
#X obj 59 155 outlet;
#X text 103 34 output min/max;
#X obj 295 31 loadbang;
#X msg 294 57 24;
#X msg 323 57 36;
#X connect 0 0 3 0;
#X connect 1 0 3 1;
#X connect 2 0 3 2;
#X connect 3 0 7 0;
#X connect 4 0 0 0;
#X connect 5 0 1 0;
#X connect 6 0 2 0;
#X connect 9 0 10 0;
#X connect 9 0 11 0;
#X connect 10 0 1 0;
#X connect 11 0 2 0;
#X coords 0 -1 1 1 240 30 2 40 25;
#X restore -70 288 pd scaling;
#X obj 118 86 route \$1;
#X text 177 87 routing figure id;
#X floatatom -70 328 5 0 0 0 - - -;
#X connect 0 0 3 0;
#X connect 1 0 2 0;
#X connect 2 0 5 0;
#X connect 3 0 1 2;
